<?xml version="1.0" standalone="no"?>
<!DOCTYPE svg PUBLIC "-//W3C//DTD SVG 20010904//EN"
 "http://www.w3.org/TR/2001/REC-SVG-20010904/DTD/svg10.dtd">
<svg version="1.0" xmlns="http://www.w3.org/2000/svg"
 width="700.000000pt" height="700.000000pt" viewBox="0 0 700.000000 700.000000"
 preserveAspectRatio="xMidYMid meet">
<metadata>
Created by potrace 1.14, written by Peter Selinger 2001-2017
</metadata>
<g transform="translate(0.000000,700.000000) scale(0.100000,-0.100000)"
fill="#000000" stroke="none">
<path d="M0 4238 l0 -88 1204 0 c951 0 1206 3 1213 13 6 6 16 30 23 52 7 22
16 45 20 50 4 6 10 22 13 36 l7 26 -1240 0 -1240 0 0 -89z"/>
<path d="M2621 4276 c-10 -28 -120 -319 -244 -646 -124 -327 -268 -710 -321
-850 -53 -140 -103 -271 -111 -290 -8 -19 -85 -222 -171 -450 -86 -228 -208
-552 -271 -720 -64 -168 -125 -332 -138 -365 -53 -144 -307 -812 -314 -830
-18 -40 -41 -106 -41 -115 0 -6 46 -10 113 -10 l113 0 63 177 c35 98 77 214
93 258 16 44 33 91 38 105 5 14 25 70 45 125 21 55 44 121 52 148 8 26 18 48
21 48 30 5 204 4 207 -1 3 -4 -32 -112 -76 -241 -44 -129 -100 -290 -124 -359
-23 -69 -52 -152 -64 -185 -11 -32 -21 -63 -21 -67 0 -4 51 -8 114 -8 l114 0
16 48 c8 26 71 220 140 432 l126 385 105 0 c65 0 105 -3 105 -10 0 -5 -25 -91
-56 -190 -31 -99 -87 -281 -125 -405 -38 -124 -72 -233 -75 -242 -5 -16 5 -18
109 -18 121 0 123 1 133 50 2 8 26 94 55 190 28 96 53 183 56 193 5 15 18 17
114 16 60 -1 109 -6 109 -11 0 -9 -108 -402 -117 -425 -4 -10 19 -13 110 -13
64 0 118 4 121 8 3 5 7 19 10 33 4 21 183 718 204 794 l8 30 103 0 c56 0 104
-2 106 -5 2 -4 -3 -35 -11 -71 -9 -35 -17 -71 -19 -79 -1 -8 -14 -61 -29 -116
-14 -56 -27 -112 -30 -125 -7 -35 -106 -442 -111 -456 -3 -10 23 -13 113 -13
l118 0 17 78 c44 202 110 500 137 617 17 72 32 139 35 150 4 18 13 20 110 21
l106 1 -6 -46 c-4 -25 -11 -59 -15 -76 -5 -16 -11 -43 -14 -60 -2 -16 -10 -55
-16 -85 -6 -30 -14 -66 -16 -80 -3 -13 -23 -110 -45 -215 -22 -104 -44 -212
-49 -238 -6 -27 -12 -53 -15 -58 -4 -5 43 -9 113 -9 l120 0 22 118 c12 64 28
149 35 187 8 39 17 86 20 105 3 19 12 67 20 105 8 39 17 86 20 105 3 19 15 80
25 135 11 55 22 116 25 135 3 19 10 54 16 78 5 23 12 59 15 80 3 20 9 53 14
72 5 19 11 51 14 71 3 19 17 93 30 165 14 71 27 140 30 154 2 14 14 77 26 140
12 63 24 122 25 130 2 8 11 56 20 105 9 50 19 101 21 115 3 14 21 108 40 210
20 102 38 196 40 210 3 14 7 39 11 55 3 17 7 37 8 45 3 16 4 23 41 215 35 183
32 169 64 340 12 61 25 130 30 155 5 25 12 58 15 74 2 16 9 52 14 80 6 28 13
64 15 80 3 16 10 52 15 80 6 28 13 62 15 76 17 92 66 349 70 365 2 11 10 53
17 93 l13 72 1333 0 1333 0 0 88 0 88 -2180 0 -2180 0 -19 -50z m907 -130 c3
-3 -50 -205 -84 -318 -5 -15 -18 -18 -85 -18 -89 0 -89 0 -65 72 8 24 29 93
46 153 18 61 33 112 35 115 4 6 146 2 153 -4z m-678 -114 c0 -3 -16 -55 -37
-114 l-36 -108 -83 0 -82 0 35 98 c19 53 38 105 40 114 3 11 18 18 42 20 46 4
121 -2 121 -10z m1277 -107 l-23 -110 -82 -3 c-62 -2 -82 0 -82 10 1 7 11 58
24 113 l22 100 80 5 c43 3 80 3 81 0 2 -3 -8 -54 -20 -115z m-772 -422 l-52
-188 -88 -3 c-79 -3 -86 -1 -81 15 3 10 26 90 51 178 25 88 47 166 50 173 3 8
30 12 88 12 l84 0 -52 -187z m-95 -337 c0 -9 -27 -112 -90 -336 -5 -19 -12
-44 -15 -55 -4 -18 -13 -20 -89 -20 -47 0 -88 3 -91 7 -3 3 17 84 45 179 29
96 54 183 57 194 3 11 6 25 8 31 4 15 175 15 175 0z m-177 -650 c-80 -293
-101 -368 -105 -372 -11 -10 -188 -9 -188 2 0 10 63 229 112 392 l22 73 92 -2
92 -1 -25 -92z m-870 -343 c-25 -71 -50 -144 -56 -163 l-12 -35 -98 -2 c-53
-1 -97 0 -97 2 0 2 20 60 44 127 24 68 50 140 57 161 l13 37 97 0 96 0 -44
-127z m1572 100 c-4 -16 -13 -62 -21 -103 -8 -41 -19 -91 -23 -110 -5 -19 -12
-47 -15 -61 -6 -26 -7 -27 -101 -27 -52 -1 -95 3 -95 8 0 5 7 37 15 72 8 35
16 73 18 84 5 28 29 137 33 152 2 8 31 12 100 12 l96 0 -7 -27z m-855 -311 c0
-3 -18 -69 -39 -147 -22 -77 -54 -192 -71 -255 l-31 -116 -100 1 -101 0 6 30
c4 16 37 134 74 262 57 198 70 233 87 235 34 5 175 -3 175 -10z m-205 -736
c-3 -17 -8 -38 -10 -47 -3 -15 -72 -263 -120 -434 l-22 -80 -112 -3 c-62 -1
-111 1 -108 5 2 4 42 136 88 293 45 157 87 288 93 292 5 3 52 6 104 6 l94 -1
-7 -31z"/>
<path d="M2191 3912 c-50 -25 -65 -52 -45 -80 25 -36 100 -26 142 18 25 27 22
52 -9 67 -32 17 -48 16 -88 -5z"/>
<path d="M4470 3903 c-20 -16 -27 -31 -25 -45 7 -34 23 -43 76 -43 41 0 54 4
70 24 25 30 24 53 -2 70 -38 23 -88 21 -119 -6z"/>
<path d="M1763 2883 c-18 -9 -40 -32 -49 -51 -15 -33 -15 -35 4 -54 42 -43
149 -10 171 53 21 59 -51 89 -126 52z"/>
<path d="M4310 2883 c-35 -24 -49 -44 -44 -67 15 -81 149 -75 179 9 20 57 -77
98 -135 58z"/>
<path d="M1285 1621 c-62 -15 -115 -67 -115 -113 0 -35 13 -49 54 -58 90 -20
202 101 144 156 -19 17 -49 23 -83 15z"/>
<path d="M4114 1615 c-66 -28 -91 -94 -52 -138 22 -25 43 -31 97 -28 32 1 91
63 91 94 0 59 -75 98 -136 72z"/>
<path d="M888 1236 c-72 -36 -108 -116 -68 -150 40 -35 124 -18 171 34 l27 28
0 -25 c0 -36 23 -54 70 -55 50 0 99 26 129 72 30 43 29 65 -2 96 -21 21 -32
24 -61 20 -48 -8 -88 -30 -114 -63 -18 -23 -21 -24 -16 -7 9 30 -24 67 -62 70
-18 1 -51 -8 -74 -20z"/>
<path d="M4039 1239 c-61 -31 -78 -107 -35 -148 47 -44 141 -23 172 38 l12 22
6 -26 c9 -34 59 -64 99 -58 102 14 145 138 63 177 -19 9 -45 14 -58 12 -12 -3
-28 -5 -34 -5 -16 -1 -64 -48 -64 -63 0 -7 -9 2 -20 20 -32 52 -81 63 -141 31z"/>
</g>
</svg>
